<svg version="1.1" id="Layer_1" xmlns="http://www.w3.org/2000/svg" xmlns:xlink="http://www.w3.org/1999/xlink" x="0px" y="0px"
	 width="100%" viewBox="0 0 958 166" enable-background="new 0 0 958 166" xml:space="preserve">
<path fill="#FEFEFE" opacity="1.000000" stroke="none" 
	d="
M959.000000,113.000000 
	C959.000000,130.996536 959.000000,148.993088 959.000000,166.992218 
	C639.731445,166.994812 320.462891,166.994812 1.097175,166.994812 
	C1.097175,111.742226 1.097175,56.484230 1.097175,1.113115 
	C320.333313,1.113115 639.666626,1.113115 959.000000,1.113115 
	C959.000000,30.417208 959.000000,59.744720 958.614868,89.476486 
	C958.057373,89.420082 957.818909,88.972885 957.722107,88.496880 
	C951.581238,58.317547 922.910156,40.494797 890.121277,48.743237 
	C848.079651,59.319351 843.282898,110.606461 862.488770,135.869385 
	C873.362549,150.172409 888.770142,154.729385 906.399048,155.200974 
	C930.524292,155.846390 951.520508,138.399048 957.052795,116.471954 
	C957.366150,115.229935 958.335815,114.153496 959.000000,113.000000 
M20.517513,153.000214 
	C42.142803,152.662415 63.778702,152.629364 85.389580,151.877441 
	C99.318832,151.392776 110.140144,144.789673 116.992874,132.426773 
	C128.307526,112.014198 122.580070,86.958015 99.139984,78.335762 
	C98.348412,78.044586 97.675316,77.431351 96.655640,76.782974 
	C97.773521,76.042831 98.453583,75.581261 99.144600,75.136711 
	C119.749596,61.880768 121.225273,34.171429 102.232552,18.743809 
	C95.036072,12.898173 86.612076,10.493921 77.688255,10.384279 
	C54.934002,10.104713 32.174015,10.291190 9.297976,10.291190 
	C9.297976,57.778431 9.297976,105.283318 9.297976,153.000214 
	C12.904159,153.000214 16.213930,153.000214 20.517513,153.000214 
M509.631042,25.133080 
	C495.210022,40.866112 480.789001,56.599148 466.368011,72.332184 
	C465.999390,72.168945 465.630798,72.005714 465.262207,71.842484 
	C465.262207,51.325367 465.262207,30.808250 465.262207,10.125711 
	C455.281433,10.125711 445.872498,10.125711 436.454956,10.125711 
	C436.454956,57.875004 436.454956,105.380119 436.454956,152.619232 
	C446.228699,152.619232 455.639465,152.619232 465.255219,152.619232 
	C465.255219,139.416977 465.222961,126.596733 465.296570,113.777084 
	C465.305634,112.198669 465.328827,110.048767 466.279205,109.137848 
	C473.828064,101.902428 481.602905,94.902702 489.330261,87.810539 
	C489.554657,88.140060 490.644592,89.561348 491.547058,91.093079 
	C502.934448,110.420219 514.355957,129.727905 525.593262,149.142120 
	C527.198120,151.914795 528.812683,153.177032 532.159302,153.090179 
	C541.814392,152.839569 551.480286,153.015671 561.141785,152.986862 
	C562.333252,152.983307 563.524109,152.753601 565.129883,152.585205 
	C546.882812,124.632484 529.022827,97.179413 511.013306,69.824738 
	C509.168243,67.022224 508.782318,65.367874 511.435181,62.705154 
	C522.241638,51.858673 532.764099,40.728897 543.370178,29.683321 
	C549.485596,23.314461 555.560669,16.906961 562.258850,9.882417 
	C555.195007,9.882417 549.205322,9.854804 543.216064,9.889883 
	C536.725586,9.927896 529.393372,8.162273 523.978333,10.611025 
	C518.393127,13.136711 514.673950,19.788788 509.631042,25.133080 
M185.033432,134.072403 
	C174.853424,132.858170 165.563263,120.283928 167.722870,108.281517 
	C190.299896,108.281517 212.994934,108.281517 236.051224,108.281517 
	C235.652481,102.509605 235.508163,97.359741 234.908386,92.263466 
	C232.171356,69.007027 220.029053,51.427773 194.916824,47.295319 
	C173.938812,43.843189 153.832962,53.398891 144.848572,72.682076 
	C136.339127,90.945915 136.486374,109.811333 143.800064,128.414490 
	C149.077225,141.837509 159.201599,150.582428 173.305359,153.519424 
	C180.696930,155.058670 188.524384,155.101395 196.129959,154.895523 
	C213.477051,154.425919 230.686691,139.756256 233.602478,123.336433 
	C225.719299,122.218185 217.858078,120.971199 209.954346,120.117836 
	C208.706314,119.983086 206.610992,121.302551 206.018250,122.499672 
	C201.108383,132.415710 196.628387,135.129410 185.033432,134.072403 
M635.028931,129.541016 
	C628.656860,135.746338 621.147522,135.809265 613.737793,132.480576 
	C603.954834,128.085739 600.944275,119.296005 600.226807,108.635300 
	C623.273865,108.635300 646.008789,108.635300 669.837097,108.635300 
	C668.817566,100.026283 668.304749,92.088356 666.874817,84.319229 
	C663.055847,63.569698 647.736267,49.571346 626.711853,47.075199 
	C605.070618,44.505825 586.276794,54.535686 577.627869,73.648911 
	C572.059814,85.953728 571.270996,98.926125 572.832581,112.252907 
	C578.075806,156.999542 620.969055,161.793945 646.279175,149.984039 
	C657.363953,144.811783 663.704102,135.205612 667.407837,123.364998 
	C662.380859,122.654732 657.953674,121.994186 653.516113,121.412094 
	C649.107178,120.833755 644.687988,120.334351 640.936096,119.880508 
	C638.903076,123.327705 637.226501,126.170654 635.028931,129.541016 
M744.569214,92.792686 
	C749.105286,96.799431 753.225769,101.480858 758.303223,104.608894 
	C762.719421,107.329575 768.147034,108.543831 773.252380,109.980789 
	C782.198425,112.498764 791.250061,114.639542 800.236633,117.016846 
	C803.901672,117.986382 806.655090,120.064125 806.733398,124.206779 
	C806.809753,128.251053 804.917969,131.638855 801.102112,132.796234 
	C796.237976,134.271576 791.101746,135.651489 786.084106,135.647034 
	C776.659180,135.638687 768.803711,132.339828 765.607544,122.224152 
	C765.292114,121.225952 763.461426,119.931000 762.476868,120.041916 
	C754.261353,120.967392 746.079468,122.190308 737.893188,123.322662 
	C739.470459,135.207703 749.910950,147.259613 762.907471,151.697433 
	C776.968872,156.498901 791.370850,156.066345 805.768860,153.259552 
	C814.077881,151.639771 820.844604,147.290741 826.467834,141.057983 
	C837.888062,128.399918 838.108093,104.240372 818.314270,95.619514 
	C813.306885,93.438622 808.124268,91.568977 802.881226,90.039421 
	C792.838196,87.109505 782.662842,84.634537 772.609619,81.737282 
	C769.289429,80.780426 766.522888,78.799377 766.809937,74.652779 
	C767.090149,70.604073 770.024780,68.598190 773.357056,68.154213 
	C779.237000,67.370819 785.267639,66.799843 791.153687,67.237160 
	C797.182861,67.685104 801.402832,71.517326 803.865906,77.192734 
	C804.349243,78.306427 805.789062,79.925461 806.612305,79.828117 
	C814.461426,78.900101 822.272766,77.652397 830.556702,76.428284 
	C826.837402,62.507580 819.183777,52.929989 805.542603,49.315861 
	C791.794617,45.673435 777.812927,45.544022 764.104126,49.513023 
	C744.714294,55.126831 736.238281,73.621178 744.569214,92.792686 
M286.755524,85.518608 
	C287.220123,83.756615 287.494019,81.916122 288.181458,80.245850 
	C291.647430,71.824341 301.736115,66.523674 311.168732,68.056801 
	C318.807831,69.298424 323.743408,75.323517 324.005829,85.212021 
	C324.557800,106.008698 324.659424,126.817360 324.940033,147.621185 
	C324.963531,149.365112 324.943115,151.109634 324.943115,152.723572 
	C334.381622,152.723572 343.138000,152.723572 352.016602,152.723572 
	C352.016602,127.488930 352.366638,102.523338 351.858948,77.575211 
	C351.628387,66.245590 347.014282,56.601990 336.133514,51.073433 
	C320.459076,43.109158 301.033997,46.250717 288.213867,58.921307 
	C286.888336,60.231350 285.530090,61.508228 283.225006,63.726139 
	C283.225006,58.007961 283.225006,53.770481 283.225006,49.188709 
	C276.130249,49.188709 269.488556,49.480171 262.887878,49.085609 
	C258.532776,48.825275 257.675659,50.408554 257.695343,54.430370 
	C257.847778,85.577927 257.775757,116.726570 257.790619,147.874878 
	C257.791382,149.473679 257.951202,151.072418 258.033447,152.605682 
	C267.340820,152.605682 276.214050,152.605682 285.372955,152.605682 
	C285.372955,138.229813 285.235657,124.246162 285.426086,110.266975 
	C285.534668,102.294746 286.177887,94.329803 286.755524,85.518608 
M691.074036,107.499992 
	C691.074036,122.588646 691.074036,137.677292 691.074036,152.764206 
	C700.826660,152.764206 709.756958,152.764206 718.793640,152.764206 
	C718.793640,105.116463 718.793640,57.707581 718.793640,10.242394 
	C709.523743,10.242394 700.479675,10.242394 691.074036,10.242394 
	C691.074036,42.567726 691.074036,74.533852 691.074036,107.499992 
z"/>
<path fill="#030303" opacity="1.000000" stroke="none" 
	d="
M959.000000,112.600006 
	C958.335815,114.153496 957.366150,115.229935 957.052795,116.471954 
	C951.520508,138.399048 930.524292,155.846390 906.399048,155.200974 
	C888.770142,154.729385 873.362549,150.172409 862.488770,135.869385 
	C843.282898,110.606461 848.079651,59.319351 890.121277,48.743237 
	C922.910156,40.494797 951.581238,58.317547 957.722107,88.496880 
	C957.818909,88.972885 958.057373,89.420082 958.614868,89.940369 
	C959.000000,91.066673 959.000000,92.133339 958.664612,93.851318 
	C958.282043,98.031433 958.234863,101.560234 958.141968,105.455238 
	C958.397522,106.880959 958.698730,107.940475 959.000000,109.000000 
	C959.000000,110.066673 959.000000,111.133339 959.000000,112.600006 
M880.796570,92.412010 
	C880.901611,99.190529 880.209839,106.097954 881.281067,112.720169 
	C883.373230,125.652916 893.274414,134.233795 904.935486,134.447372 
	C916.824402,134.665131 926.607422,126.734200 929.021301,113.459053 
	C930.338562,106.214622 930.666077,98.473701 929.682617,91.194130 
	C927.708801,76.585251 917.704529,67.800240 904.915161,67.907188 
	C892.607666,68.010094 883.319336,77.151581 880.796570,92.412010 
z"/>
<path fill="#3D3D3D" opacity="1.000000" stroke="none" 
	d="
M958.187622,105.089043 
	C958.234863,101.560234 958.282043,98.031433 958.664612,94.251312 
	C959.000000,97.361290 959.000000,100.722572 958.797241,104.567123 
	C958.594543,105.050377 958.187683,105.089043 958.187622,105.089043 
z"/>
<path fill="#5E5E5E" opacity="1.000000" stroke="none" 
	d="
M958.141968,105.455238 
	C958.187683,105.089043 958.594543,105.050377 958.797241,105.025192 
	C959.000000,106.066673 959.000000,107.133339 959.000000,108.600006 
	C958.698730,107.940475 958.397522,106.880959 958.141968,105.455238 
z"/>
<path fill="#010101" opacity="1.000000" stroke="none" 
	d="
M20.020607,153.000214 
	C16.213930,153.000214 12.904159,153.000214 9.297976,153.000214 
	C9.297976,105.283318 9.297976,57.778431 9.297976,10.291190 
	C32.174015,10.291190 54.934002,10.104713 77.688255,10.384279 
	C86.612076,10.493921 95.036072,12.898173 102.232552,18.743809 
	C121.225273,34.171429 119.749596,61.880768 99.144600,75.136711 
	C98.453583,75.581261 97.773521,76.042831 96.655640,76.782974 
	C97.675316,77.431351 98.348412,78.044586 99.139984,78.335762 
	C122.580070,86.958015 128.307526,112.014198 116.992874,132.426773 
	C110.140144,144.789673 99.318832,151.392776 85.389580,151.877441 
	C63.778702,152.629364 42.142803,152.662415 20.020607,153.000214 
M31.978607,127.807983 
	C40.624413,127.940178 49.272839,128.263840 57.915222,128.145752 
	C65.219322,128.045959 72.590645,127.943375 79.793907,126.893280 
	C85.921478,125.999992 90.281158,122.002678 91.949165,115.750908 
	C95.254478,103.362473 88.368370,93.188606 75.322319,92.327545 
	C61.882607,91.440498 48.377903,91.566681 34.906170,91.114502 
	C31.860870,91.012283 31.281551,92.437645 31.309586,95.039223 
	C31.424479,105.700966 31.423466,116.363945 31.978607,127.807983 
M39.648453,34.434978 
	C38.815384,34.434959 37.966309,34.540638 37.151905,34.417336 
	C32.715069,33.745564 30.920237,35.219933 31.217066,40.058975 
	C31.654884,47.196484 31.582525,54.393005 31.236097,61.540577 
	C31.025988,65.875595 32.641327,66.918922 36.671612,66.761772 
	C43.991459,66.476341 51.337349,66.877106 58.659176,66.618248 
	C64.454178,66.413383 70.346054,66.196457 75.983353,64.993469 
	C82.744118,63.550747 86.541061,58.676662 87.126602,52.525524 
	C88.158279,41.687710 82.259964,35.176949 70.584465,34.783325 
	C60.600391,34.446728 50.602001,34.534782 39.648453,34.434978 
z"/>
<path fill="#020202" opacity="1.000000" stroke="none" 
	d="
M509.884705,24.884306 
	C514.673950,19.788788 518.393127,13.136711 523.978333,10.611025 
	C529.393372,8.162273 536.725586,9.927896 543.216064,9.889883 
	C549.205322,9.854804 555.195007,9.882417 562.258850,9.882417 
	C555.560669,16.906961 549.485596,23.314461 543.370178,29.683321 
	C532.764099,40.728897 522.241638,51.858673 511.435181,62.705154 
	C508.782318,65.367874 509.168243,67.022224 511.013306,69.824738 
	C529.022827,97.179413 546.882812,124.632484 565.129883,152.585205 
	C563.524109,152.753601 562.333252,152.983307 561.141785,152.986862 
	C551.480286,153.015671 541.814392,152.839569 532.159302,153.090179 
	C528.812683,153.177032 527.198120,151.914795 525.593262,149.142120 
	C514.355957,129.727905 502.934448,110.420219 491.547058,91.093079 
	C490.644592,89.561348 489.554657,88.140060 489.330261,87.810539 
	C481.602905,94.902702 473.828064,101.902428 466.279205,109.137848 
	C465.328827,110.048767 465.305634,112.198669 465.296570,113.777084 
	C465.222961,126.596733 465.255219,139.416977 465.255219,152.619232 
	C455.639465,152.619232 446.228699,152.619232 436.454956,152.619232 
	C436.454956,105.380119 436.454956,57.875004 436.454956,10.125711 
	C445.872498,10.125711 455.281433,10.125711 465.262207,10.125711 
	C465.262207,30.808250 465.262207,51.325367 465.262207,71.842484 
	C465.630798,72.005714 465.999390,72.168945 466.368011,72.332184 
	C480.789001,56.599148 495.210022,40.866112 509.884705,24.884306 
z"/>
<path fill="#040404" opacity="1.000000" stroke="none" 
	d="
M185.470551,134.128937 
	C196.628387,135.129410 201.108383,132.415710 206.018250,122.499672 
	C206.610992,121.302551 208.706314,119.983086 209.954346,120.117836 
	C217.858078,120.971199 225.719299,122.218185 233.602478,123.336433 
	C230.686691,139.756256 213.477051,154.425919 196.129959,154.895523 
	C188.524384,155.101395 180.696930,155.058670 173.305359,153.519424 
	C159.201599,150.582428 149.077225,141.837509 143.800064,128.414490 
	C136.486374,109.811333 136.339127,90.945915 144.848572,72.682076 
	C153.832962,53.398891 173.938812,43.843189 194.916824,47.295319 
	C220.029053,51.427773 232.171356,69.007027 234.908386,92.263466 
	C235.508163,97.359741 235.652481,102.509605 236.051224,108.281517 
	C212.994934,108.281517 190.299896,108.281517 167.722870,108.281517 
	C165.563263,120.283928 174.853424,132.858170 185.470551,134.128937 
M168.105209,83.958267 
	C167.825790,86.199966 167.546371,88.441673 167.237411,90.920380 
	C181.039719,90.920380 194.465698,90.920380 208.070633,90.920380 
	C208.297043,84.486656 206.744965,78.985779 202.607620,74.190826 
	C193.797607,63.980526 173.325195,65.341011 168.105209,83.958267 
z"/>
<path fill="#040404" opacity="1.000000" stroke="none" 
	d="
M635.289429,129.277313 
	C637.226501,126.170654 638.903076,123.327705 640.936096,119.880508 
	C644.687988,120.334351 649.107178,120.833755 653.516113,121.412094 
	C657.953674,121.994186 662.380859,122.654732 667.407837,123.364998 
	C663.704102,135.205612 657.363953,144.811783 646.279175,149.984039 
	C620.969055,161.793945 578.075806,156.999542 572.832581,112.252907 
	C571.270996,98.926125 572.059814,85.953728 577.627869,73.648911 
	C586.276794,54.535686 605.070618,44.505825 626.711853,47.075199 
	C647.736267,49.571346 663.055847,63.569698 666.874817,84.319229 
	C668.304749,92.088356 668.817566,100.026283 669.837097,108.635300 
	C646.008789,108.635300 623.273865,108.635300 600.226807,108.635300 
	C600.944275,119.296005 603.954834,128.085739 613.737793,132.480576 
	C621.147522,135.809265 628.656860,135.746338 635.289429,129.277313 
M640.940247,83.828430 
	C637.194519,72.035172 628.943298,66.384811 617.876831,68.034912 
	C607.607971,69.566078 601.487976,77.694969 600.920898,90.852318 
	C614.486084,90.852318 628.038086,90.852318 641.822327,90.852318 
	C641.535217,88.571518 641.288025,86.607826 640.940247,83.828430 
z"/>
<path fill="#030303" opacity="1.000000" stroke="none" 
	d="
M744.369873,92.473045 
	C736.238281,73.621178 744.714294,55.126831 764.104126,49.513023 
	C777.812927,45.544022 791.794617,45.673435 805.542603,49.315861 
	C819.183777,52.929989 826.837402,62.507580 830.556702,76.428284 
	C822.272766,77.652397 814.461426,78.900101 806.612305,79.828117 
	C805.789062,79.925461 804.349243,78.306427 803.865906,77.192734 
	C801.402832,71.517326 797.182861,67.685104 791.153687,67.237160 
	C785.267639,66.799843 779.237000,67.370819 773.357056,68.154213 
	C770.024780,68.598190 767.090149,70.604073 766.809937,74.652779 
	C766.522888,78.799377 769.289429,80.780426 772.609619,81.737282 
	C782.662842,84.634537 792.838196,87.109505 802.881226,90.039421 
	C808.124268,91.568977 813.306885,93.438622 818.314270,95.619514 
	C838.108093,104.240372 837.888062,128.399918 826.467834,141.057983 
	C820.844604,147.290741 814.077881,151.639771 805.768860,153.259552 
	C791.370850,156.066345 776.968872,156.498901 762.907471,151.697433 
	C749.910950,147.259613 739.470459,135.207703 737.893188,123.322662 
	C746.079468,122.190308 754.261353,120.967392 762.476868,120.041916 
	C763.461426,119.931000 765.292114,121.225952 765.607544,122.224152 
	C768.803711,132.339828 776.659180,135.638687 786.084106,135.647034 
	C791.101746,135.651489 796.237976,134.271576 801.102112,132.796234 
	C804.917969,131.638855 806.809753,128.251053 806.733398,124.206779 
	C806.655090,120.064125 803.901672,117.986382 800.236633,117.016846 
	C791.250061,114.639542 782.198425,112.498764 773.252380,109.980789 
	C768.147034,108.543831 762.719421,107.329575 758.303223,104.608894 
	C753.225769,101.480858 749.105286,96.799431 744.369873,92.473045 
z"/>
<path fill="#020202" opacity="1.000000" stroke="none" 
	d="
M286.667938,85.940094 
	C286.177887,94.329803 285.534668,102.294746 285.426086,110.266975 
	C285.235657,124.246162 285.372955,138.229813 285.372955,152.605682 
	C276.214050,152.605682 267.340820,152.605682 258.033447,152.605682 
	C257.951202,151.072418 257.791382,149.473679 257.790619,147.874878 
	C257.775757,116.726570 257.847778,85.577927 257.695343,54.430370 
	C257.675659,50.408554 258.532776,48.825275 262.887878,49.085609 
	C269.488556,49.480171 276.130249,49.188709 283.225006,49.188709 
	C283.225006,53.770481 283.225006,58.007961 283.225006,63.726139 
	C285.530090,61.508228 286.888336,60.231350 288.213867,58.921307 
	C301.033997,46.250717 320.459076,43.109158 336.133514,51.073433 
	C347.014282,56.601990 351.628387,66.245590 351.858948,77.575211 
	C352.366638,102.523338 352.016602,127.488930 352.016602,152.723572 
	C343.138000,152.723572 334.381622,152.723572 324.943115,152.723572 
	C324.943115,151.109634 324.963531,149.365112 324.940033,147.621185 
	C324.659424,126.817360 324.557800,106.008698 324.005829,85.212021 
	C323.743408,75.323517 318.807831,69.298424 311.168732,68.056801 
	C301.736115,66.523674 291.647430,71.824341 288.181458,80.245850 
	C287.494019,81.916122 287.220123,83.756615 286.667938,85.940094 
z"/>
<path fill="#020202" opacity="1.000000" stroke="none" 
	d="
M691.074036,106.999985 
	C691.074036,74.533852 691.074036,42.567726 691.074036,10.242394 
	C700.479675,10.242394 709.523743,10.242394 718.793640,10.242394 
	C718.793640,57.707581 718.793640,105.116463 718.793640,152.764206 
	C709.756958,152.764206 700.826660,152.764206 691.074036,152.764206 
	C691.074036,137.677292 691.074036,122.588646 691.074036,106.999985 
z"/>
<path fill="#FDFDFD" opacity="1.000000" stroke="none" 
	d="
M880.845337,91.980263 
	C883.319336,77.151581 892.607666,68.010094 904.915161,67.907188 
	C917.704529,67.800240 927.708801,76.585251 929.682617,91.194130 
	C930.666077,98.473701 930.338562,106.214622 929.021301,113.459053 
	C926.607422,126.734200 916.824402,134.665131 904.935486,134.447372 
	C893.274414,134.233795 883.373230,125.652916 881.281067,112.720169 
	C880.209839,106.097954 880.901611,99.190529 880.845337,91.980263 
z"/>
<path fill="#FBFBFB" opacity="1.000000" stroke="none" 
	d="
M31.721859,127.417229 
	C31.423466,116.363945 31.424479,105.700966 31.309586,95.039223 
	C31.281551,92.437645 31.860870,91.012283 34.906170,91.114502 
	C48.377903,91.566681 61.882607,91.440498 75.322319,92.327545 
	C88.368370,93.188606 95.254478,103.362473 91.949165,115.750908 
	C90.281158,122.002678 85.921478,125.999992 79.793907,126.893280 
	C72.590645,127.943375 65.219322,128.045959 57.915222,128.145752 
	C49.272839,128.263840 40.624413,127.940178 31.721859,127.417229 
z"/>
<path fill="#F8F8F8" opacity="1.000000" stroke="none" 
	d="
M40.129196,34.434994 
	C50.602001,34.534782 60.600391,34.446728 70.584465,34.783325 
	C82.259964,35.176949 88.158279,41.687710 87.126602,52.525524 
	C86.541061,58.676662 82.744118,63.550747 75.983353,64.993469 
	C70.346054,66.196457 64.454178,66.413383 58.659176,66.618248 
	C51.337349,66.877106 43.991459,66.476341 36.671612,66.761772 
	C32.641327,66.918922 31.025988,65.875595 31.236097,61.540577 
	C31.582525,54.393005 31.654884,47.196484 31.217066,40.058975 
	C30.920237,35.219933 32.715069,33.745564 37.151905,34.417336 
	C37.966309,34.540638 38.815384,34.434959 40.129196,34.434994 
z"/>
<path fill="#FCFCFC" opacity="1.000000" stroke="none" 
	d="
M168.182281,83.559036 
	C173.325195,65.341011 193.797607,63.980526 202.607620,74.190826 
	C206.744965,78.985779 208.297043,84.486656 208.070633,90.920380 
	C194.465698,90.920380 181.039719,90.920380 167.237411,90.920380 
	C167.546371,88.441673 167.825790,86.199966 168.182281,83.559036 
z"/>
<path fill="#FCFCFC" opacity="1.000000" stroke="none" 
	d="
M640.990540,84.236282 
	C641.288025,86.607826 641.535217,88.571518 641.822327,90.852318 
	C628.038086,90.852318 614.486084,90.852318 600.920898,90.852318 
	C601.487976,77.694969 607.607971,69.566078 617.876831,68.034912 
	C628.943298,66.384811 637.194519,72.035172 640.990540,84.236282 
z"/>
</svg>