<svg version="1.1" id="Layer_1" xmlns="http://www.w3.org/2000/svg" xmlns:xlink="http://www.w3.org/1999/xlink" x="0px" y="0px"
	 width="100%" viewBox="0 0 85 128" enable-background="new 0 0 85 128" xml:space="preserve">
<path fill="#FBFBFB" opacity="1.000000" stroke="none" 
	d="
M1.000000,42.000000 
	C1.000000,28.361326 1.000000,14.722654 1.000000,1.041991 
	C29.247253,1.041991 57.494583,1.041991 86.000000,1.041991 
	C86.000000,30.020384 86.000000,59.041534 85.648514,88.418488 
	C83.384422,80.199593 77.715355,75.039894 69.884109,71.872566 
	C60.952339,68.260139 51.755741,68.024429 42.456978,69.982208 
	C28.373854,72.947296 20.462381,83.105019 22.221207,97.345398 
	C22.842333,102.374359 26.035419,107.085655 28.078365,112.000000 
	C19.587351,112.000000 10.293675,112.000000 1.000000,112.000000 
	C1.000000,94.312439 1.000000,76.624878 1.468255,58.494507 
	C29.318682,58.051701 56.700851,58.051701 83.817474,58.051701 
	C83.817474,52.340485 83.817474,47.272167 83.817474,42.488686 
	C75.386162,40.299191 65.219673,46.178051 59.166626,35.657452 
	C66.683975,31.431467 74.082466,27.362492 81.361946,23.090708 
	C82.566696,22.383728 83.989258,20.826506 84.049934,19.599823 
	C84.333748,13.861932 84.175926,8.102196 84.175926,1.618129 
	C72.681961,8.407890 61.755226,14.627343 51.106182,21.290594 
	C47.728390,23.404125 45.760349,23.012280 43.080532,20.365404 
	C37.636276,14.988070 31.861454,9.944120 26.183571,4.806202 
	C25.447590,4.140212 24.478931,3.731353 23.253513,2.979823 
	C23.253513,8.800632 22.971115,13.976818 23.387440,19.096184 
	C23.562925,21.254028 24.715921,23.819977 26.280048,25.290472 
	C32.156063,30.814745 38.384708,35.963932 45.341408,42.000000 
	C29.813444,42.000000 15.406722,42.000000 1.000000,42.000000 
z"/>
<path fill="#020202" opacity="1.000000" stroke="none" 
	d="
M1.000000,112.466858 
	C10.293675,112.000000 19.587351,112.000000 28.078365,112.000000 
	C26.035419,107.085655 22.842333,102.374359 22.221207,97.345398 
	C20.462381,83.105019 28.373854,72.947296 42.456978,69.982208 
	C51.755741,68.024429 60.952339,68.260139 69.884109,71.872566 
	C77.715355,75.039894 83.384422,80.199593 85.648514,88.887146 
	C86.000000,92.692909 86.000000,96.385818 85.660355,100.632431 
	C83.191299,104.773689 81.061897,108.361244 78.933014,111.947937 
	C80.379166,112.011574 82.116051,112.088005 83.971840,112.169670 
	C83.971840,117.664337 83.971840,122.796738 83.506081,127.963699 
	C55.693546,127.998848 28.346773,127.999420 1.000000,128.000000 
	C1.000000,122.977905 1.000000,117.955818 1.000000,112.466858 
M53.553665,86.019417 
	C49.862968,86.857506 45.998089,87.258629 42.525158,88.643013 
	C38.067978,90.419731 36.189770,94.452110 36.202000,99.106743 
	C36.214188,103.745895 38.090874,107.741074 42.466331,109.679962 
	C50.464851,113.224327 58.683929,113.607803 66.423721,109.074623 
	C74.470985,104.361359 74.244507,92.940498 65.925255,88.767906 
	C62.500225,87.050056 58.301208,86.875374 53.553665,86.019417 
z"/>
<path fill="#030303" opacity="1.000000" stroke="none" 
	d="
M1.000000,42.466862 
	C15.406722,42.000000 29.813444,42.000000 45.341408,42.000000 
	C38.384708,35.963932 32.156063,30.814745 26.280048,25.290472 
	C24.715921,23.819977 23.562925,21.254028 23.387440,19.096184 
	C22.971115,13.976818 23.253513,8.800632 23.253513,2.979823 
	C24.478931,3.731353 25.447590,4.140212 26.183571,4.806202 
	C31.861454,9.944120 37.636276,14.988070 43.080532,20.365404 
	C45.760349,23.012280 47.728390,23.404125 51.106182,21.290594 
	C61.755226,14.627343 72.681961,8.407890 84.175926,1.618129 
	C84.175926,8.102196 84.333748,13.861932 84.049934,19.599823 
	C83.989258,20.826506 82.566696,22.383728 81.361946,23.090708 
	C74.082466,27.362492 66.683975,31.431467 59.166626,35.657452 
	C65.219673,46.178051 75.386162,40.299191 83.817474,42.488686 
	C83.817474,47.272167 83.817474,52.340485 83.817474,58.051701 
	C56.700851,58.051701 29.318682,58.051701 1.468255,58.025848 
	C1.000000,52.977909 1.000000,47.955814 1.000000,42.466862 
z"/>
<path fill="#DCDCDC" opacity="1.000000" stroke="none" 
	d="
M1.000000,128.500000 
	C28.346773,127.999420 55.693546,127.998848 83.511986,128.231445 
	C83.989098,128.643082 83.994545,128.821548 84.000000,129.000000 
	C56.333332,129.000000 28.666666,129.000000 1.000000,128.500000 
z"/>
<path fill="#E9E9E9" opacity="1.000000" stroke="none" 
	d="
M84.500000,129.000000 
	C83.994545,128.821548 83.989098,128.643082 83.977745,128.196884 
	C83.971840,122.796738 83.971840,117.664337 83.971840,112.169670 
	C82.116051,112.088005 80.379166,112.011574 78.933014,111.947937 
	C81.061897,108.361244 83.191299,104.773689 85.660355,101.093063 
	C86.000000,109.666664 86.022018,118.333504 85.956810,126.999672 
	C85.951782,127.668808 85.333328,128.333328 84.500000,129.000000 
z"/>
<path fill="#FBFBFB" opacity="1.000000" stroke="none" 
	d="
M54.003952,86.009094 
	C58.301208,86.875374 62.500225,87.050056 65.925255,88.767906 
	C74.244507,92.940498 74.470985,104.361359 66.423721,109.074623 
	C58.683929,113.607803 50.464851,113.224327 42.466331,109.679962 
	C38.090874,107.741074 36.214188,103.745895 36.202000,99.106743 
	C36.189770,94.452110 38.067978,90.419731 42.525158,88.643013 
	C45.998089,87.258629 49.862968,86.857506 54.003952,86.009094 
z"/>
</svg>