<svg version="1.1" id="Layer_1" xmlns="http://www.w3.org/2000/svg" xmlns:xlink="http://www.w3.org/1999/xlink" x="0px" y="0px"
	 width="100%" viewBox="0 0 1988 1100" enable-background="new 0 0 1988 1100" xml:space="preserve">
<path fill="#FFFFFF" opacity="1.000000" stroke="none" 
	d="
M1467.000000,1101.000000 
	C978.000061,1101.000000 489.500183,1101.000000 1.000197,1101.000000 
	C1.000131,734.333496 1.000131,367.666962 1.000066,1.000344 
	C663.666382,1.000229 1326.332764,1.000229 1988.999268,1.000115 
	C1988.999512,367.666351 1988.999512,734.332703 1988.999756,1100.999512 
	C1815.166626,1101.000000 1641.333374,1101.000000 1467.000000,1101.000000 
M434.667542,250.863998 
	C429.833344,229.136353 415.335022,216.503922 394.207886,209.212708 
	C397.046478,207.319412 399.043274,205.971741 401.055664,204.647797 
	C430.540253,185.250198 432.810852,141.257446 405.957367,118.478233 
	C392.082062,106.708130 375.760040,103.411934 358.629700,103.169205 
	C322.986664,102.664154 287.333191,102.895630 251.683975,102.844299 
	C249.943375,102.841789 248.202515,103.028885 246.561646,103.122025 
	C246.561646,178.645004 246.561646,253.547501 246.561646,328.683014 
	C247.591248,328.810181 248.377808,328.993591 249.164001,328.992004 
	C286.810486,328.916138 324.462189,329.144745 362.100098,328.530396 
	C372.788513,328.355957 383.802551,326.971893 394.035065,323.980316 
	C425.160919,314.880249 440.562042,279.489899 434.667542,250.863998 
M1107.527954,285.947144 
	C1087.916992,255.891968 1068.322266,225.826187 1048.666870,195.800095 
	C1046.938599,193.159821 1045.661499,191.228745 1048.615723,188.202103 
	C1071.388550,164.870789 1093.981201,141.363541 1116.597656,117.879913 
	C1121.112915,113.191620 1125.490356,108.370834 1130.267334,103.251114 
	C1128.836548,103.010063 1128.196533,102.808151 1127.556519,102.808105 
	C1109.229126,102.806831 1090.900513,102.733025 1072.576172,102.976624 
	C1070.616943,103.002670 1068.209595,104.465302 1066.807007,105.993027 
	C1039.931885,135.264496 1013.186523,164.655075 986.378418,193.988144 
	C983.921387,196.676559 981.220215,199.141800 978.632385,201.710663 
	C978.235352,201.492310 977.838379,201.273956 977.441345,201.055603 
	C977.441345,168.496552 977.441345,135.937500 977.441345,103.106102 
	C961.932495,103.106102 946.998291,103.106102 931.937012,103.106102 
	C931.937012,178.398346 931.937012,253.582672 931.937012,328.753662 
	C947.129822,328.753662 961.913574,328.753662 977.365784,328.753662 
	C977.365784,326.717224 977.365784,324.934906 977.365784,323.152618 
	C977.365723,303.991455 977.276855,284.829346 977.477722,265.670319 
	C977.502808,263.275665 978.429504,260.313934 980.009766,258.606506 
	C989.722534,248.111710 999.726074,237.885406 1009.681519,227.616913 
	C1011.031860,226.224091 1012.654175,225.095016 1014.284851,223.731476 
	C1015.495667,225.664291 1016.496765,227.180206 1017.417114,228.743668 
	C1036.296021,260.814484 1055.193848,292.874451 1073.989624,324.993927 
	C1075.674927,327.873779 1077.535034,329.135590 1081.035278,329.093567 
	C1097.528076,328.895447 1114.024658,329.023254 1130.519897,329.004272 
	C1131.886841,329.002686 1133.253540,328.773376 1135.369141,328.582184 
	C1125.891968,314.060089 1116.913574,300.302307 1107.527954,285.947144 
M1202.054688,330.509613 
	C1211.145508,331.324158 1220.256592,332.999878 1229.323120,332.785858 
	C1253.042114,332.225891 1273.063965,323.624329 1286.816650,303.332153 
	C1291.129517,296.968292 1294.935181,290.290955 1296.730347,282.201019 
	C1283.797119,280.386963 1271.471191,278.764740 1259.187134,276.870361 
	C1255.474365,276.297882 1253.529297,277.049500 1252.243774,280.931824 
	C1249.513428,289.177063 1244.360352,295.470886 1235.720581,298.258759 
	C1213.280518,305.499847 1189.935303,287.199860 1191.311890,258.877930 
	C1193.067139,258.877930 1194.854614,258.877838 1196.642090,258.877899 
	C1229.302856,258.878693 1261.963989,258.812256 1294.624023,258.962982 
	C1298.860718,258.982513 1300.338623,257.575653 1299.913452,253.484177 
	C1299.364014,248.195129 1299.050415,242.881760 1298.620972,237.580017 
	C1297.510986,223.877625 1294.699707,210.552261 1288.171509,198.371994 
	C1276.311157,176.243668 1257.155273,164.659378 1232.636719,161.770508 
	C1210.533936,159.166275 1190.299316,163.808105 1173.207520,178.921204 
	C1158.159912,192.226746 1150.663452,209.300201 1147.757568,228.881775 
	C1144.872070,248.325699 1145.776978,267.441162 1152.473389,285.938416 
	C1160.878052,309.153809 1177.140015,324.138641 1202.054688,330.509613 
M483.003357,311.492401 
	C494.999847,323.488495 509.647736,329.783051 526.323242,331.973328 
	C544.892578,334.412323 562.870789,332.967804 579.609680,323.924194 
	C596.258789,314.929169 606.079773,300.448120 612.294373,282.212738 
	C597.596252,280.199615 583.525696,278.272430 569.416199,276.339905 
	C568.439941,278.903351 567.784302,280.960205 566.892456,282.908966 
	C562.932617,291.560974 556.805359,297.621948 547.054260,299.305817 
	C524.553772,303.191345 505.371643,284.578857 506.473602,258.877686 
	C508.235596,258.877686 510.026398,258.877655 511.817200,258.877655 
	C544.299072,258.877594 576.781006,258.877960 609.262878,258.877136 
	C615.111877,258.877014 615.474243,258.556793 615.021606,252.587677 
	C614.456238,245.131134 614.074829,237.639816 613.039246,230.244019 
	C610.773743,214.065369 605.944214,198.812820 595.158081,186.059097 
	C581.666321,170.106232 563.875061,163.189163 543.541321,161.276855 
	C514.212280,158.518555 486.433380,173.154663 472.528290,198.999298 
	C463.587738,215.616714 461.187134,233.533264 461.648468,252.085373 
	C462.193665,274.008606 467.863708,294.063690 483.003357,311.492401 
M1610.305054,186.773499 
	C1606.484131,192.182495 1602.131836,197.296783 1598.938965,203.054123 
	C1588.086182,222.622879 1586.184448,243.713318 1589.838989,265.418396 
	C1592.538086,281.447723 1598.320435,296.311188 1610.034302,307.996216 
	C1628.695557,326.611359 1651.938232,334.017181 1677.732300,332.804352 
	C1709.317871,331.319214 1733.033569,316.256714 1747.840820,288.213104 
	C1758.119629,268.745911 1759.618896,247.839981 1755.198608,226.543427 
	C1749.204956,197.665955 1732.258667,177.690781 1704.858521,166.829163 
	C1687.638306,160.002930 1669.746338,159.440750 1651.875244,163.356888 
	C1636.021606,166.830887 1621.845459,173.907883 1610.305054,186.773499 
M1493.715576,268.703552 
	C1499.136353,270.251831 1504.696167,271.436584 1509.940796,273.444885 
	C1515.838013,275.703064 1518.143188,281.185699 1516.550415,287.341003 
	C1515.346558,291.993469 1512.500732,295.280273 1508.151245,297.257568 
	C1496.968994,302.341034 1485.432495,303.001343 1473.535645,300.243530 
	C1465.692139,298.425323 1458.168213,294.949432 1455.565430,287.441467 
	C1452.124268,277.514526 1446.778198,275.691956 1437.303101,277.894897 
	C1427.677856,280.132782 1417.689331,280.808685 1407.705444,282.189972 
	C1407.788940,283.335968 1407.713989,284.006714 1407.898682,284.595978 
	C1414.335815,305.122314 1427.477661,319.655457 1447.730469,326.838959 
	C1470.454346,334.898987 1493.654175,334.807861 1517.039551,329.118530 
	C1538.540039,323.887756 1563.463379,303.523407 1560.058716,271.897614 
	C1558.664185,258.943909 1552.809326,248.918625 1541.771606,242.026169 
	C1529.768066,234.530777 1516.313843,230.813721 1502.801147,227.225021 
	C1489.011719,223.562820 1475.222656,219.877655 1461.546997,215.819733 
	C1457.275391,214.552200 1453.925049,211.493851 1453.789429,206.449692 
	C1453.652710,201.358749 1456.330933,197.991638 1460.913574,196.067322 
	C1471.072144,191.801422 1481.657959,191.583801 1492.303101,193.255127 
	C1499.848145,194.439713 1507.242188,197.748474 1509.802246,204.974243 
	C1512.968506,213.911362 1517.914185,213.956451 1525.567017,212.276215 
	C1534.902710,210.226471 1544.523804,209.476135 1554.037598,208.161591 
	C1554.037598,206.897308 1554.187378,206.210907 1554.010986,205.622147 
	C1553.346680,203.403870 1552.696167,201.168701 1551.826416,199.026688 
	C1545.603516,183.698441 1535.642090,172.122192 1519.479126,166.676163 
	C1501.254639,160.535477 1482.645752,159.960007 1463.778320,162.468613 
	C1448.885620,164.448761 1435.555908,169.377045 1424.950439,180.767441 
	C1407.393311,199.623749 1408.388794,236.960236 1436.898071,251.073059 
	C1454.632080,259.851868 1473.851440,263.921753 1493.715576,268.703552 
M749.722595,204.942917 
	C751.148499,208.816101 753.449768,212.604889 753.832886,216.578629 
	C754.901184,227.658936 755.569214,238.811951 755.681213,249.943436 
	C755.934387,275.104950 755.753784,300.270844 755.771301,325.434937 
	C755.772095,326.527039 755.989624,327.619019 756.102478,328.676392 
	C770.522095,328.676392 784.587585,328.676392 798.553467,328.676392 
	C798.754639,328.039948 798.936829,327.733398 798.936157,327.427216 
	C798.857239,288.937714 799.097412,250.442978 798.490479,211.961639 
	C798.281433,198.704880 794.804749,185.981781 784.736633,176.067413 
	C775.889465,167.355347 764.897278,163.319595 753.014648,161.789413 
	C730.333923,158.868698 711.094421,166.062714 695.391113,182.717026 
	C694.045837,184.143799 692.457703,185.341644 689.846802,187.649750 
	C689.846802,179.124496 689.846802,172.243652 689.846802,165.073959 
	C677.779785,165.073959 666.298584,165.309067 654.835388,164.956619 
	C650.339111,164.818359 649.627075,166.520126 649.634827,170.438904 
	C649.735779,221.433533 649.750061,272.428528 649.613159,323.423004 
	C649.601807,327.667084 650.486206,329.267426 655.081482,329.115845 
	C665.735474,328.764435 676.424316,328.664978 687.068176,329.146484 
	C692.434875,329.389343 693.337891,327.479034 693.343933,322.648468 
	C693.381958,292.329712 693.532227,262.007629 694.098877,231.695114 
	C694.263489,222.890564 696.062378,214.217010 701.952942,206.954178 
	C713.747498,192.411774 738.531067,188.983307 749.722595,204.942917 
M1378.302124,180.500488 
	C1378.302124,154.726349 1378.302124,128.952225 1378.302124,103.139023 
	C1363.480835,103.139023 1349.229126,103.139023 1334.866211,103.139023 
	C1334.866211,178.503891 1334.866211,253.542084 1334.866211,328.717407 
	C1349.497070,328.717407 1363.724365,328.717407 1378.302124,328.717407 
	C1378.302124,279.446167 1378.302124,230.473343 1378.302124,180.500488 
z"/>
<path fill="#020202" opacity="1.000000" stroke="none" 
	d="
M434.787476,251.268448 
	C440.562042,279.489899 425.160919,314.880249 394.035065,323.980316 
	C383.802551,326.971893 372.788513,328.355957 362.100098,328.530396 
	C324.462189,329.144745 286.810486,328.916138 249.164001,328.992004 
	C248.377808,328.993591 247.591248,328.810181 246.561646,328.683014 
	C246.561646,253.547501 246.561646,178.645004 246.561646,103.122025 
	C248.202515,103.028885 249.943375,102.841789 251.683975,102.844299 
	C287.333191,102.895630 322.986664,102.664154 358.629700,103.169205 
	C375.760040,103.411934 392.082062,106.708130 405.957367,118.478233 
	C432.810852,141.257446 430.540253,185.250198 401.055664,204.647797 
	C399.043274,205.971741 397.046478,207.319412 394.207886,209.212708 
	C415.335022,216.503922 429.833344,229.136353 434.787476,251.268448 
M334.500000,289.994141 
	C345.279358,289.432098 356.156647,289.584259 366.812836,288.123596 
	C379.569672,286.375031 387.717285,276.922058 388.839722,264.630096 
	C390.066772,251.192993 383.872498,239.799774 371.704010,235.655304 
	C364.903137,233.338974 357.441925,232.247742 350.229523,231.994858 
	C332.599915,231.376709 314.942017,231.548355 297.295227,231.462158 
	C295.580750,231.453781 293.864197,231.863358 291.963318,232.102203 
	C291.963318,250.606155 292.015533,268.582001 291.919281,286.557037 
	C291.900024,290.152740 294.055420,290.020020 296.526276,290.013062 
	C308.850769,289.978455 321.175415,289.995361 334.500000,289.994141 
M331.499939,192.399719 
	C338.329224,192.295883 345.177612,192.476669 351.983307,192.020737 
	C361.899200,191.356415 371.322876,188.859192 376.873352,179.690323 
	C387.512451,162.115417 375.481781,142.540146 353.724854,142.120728 
	C334.399841,141.748230 315.064514,141.906235 295.733643,141.861877 
	C294.624786,141.859329 293.515320,142.143860 292.297791,142.309540 
	C292.297791,158.996445 292.297791,175.385773 292.297791,192.399734 
	C305.252502,192.399734 317.876190,192.399734 331.499939,192.399719 
z"/>
<path fill="#010101" opacity="1.000000" stroke="none" 
	d="
M1107.731567,286.245850 
	C1116.913574,300.302307 1125.891968,314.060089 1135.369141,328.582184 
	C1133.253540,328.773376 1131.886841,329.002686 1130.519897,329.004272 
	C1114.024658,329.023254 1097.528076,328.895447 1081.035278,329.093567 
	C1077.535034,329.135590 1075.674927,327.873779 1073.989624,324.993927 
	C1055.193848,292.874451 1036.296021,260.814484 1017.417114,228.743668 
	C1016.496765,227.180206 1015.495667,225.664291 1014.284851,223.731476 
	C1012.654175,225.095016 1011.031860,226.224091 1009.681519,227.616913 
	C999.726074,237.885406 989.722534,248.111710 980.009766,258.606506 
	C978.429504,260.313934 977.502808,263.275665 977.477722,265.670319 
	C977.276855,284.829346 977.365723,303.991455 977.365784,323.152618 
	C977.365784,324.934906 977.365784,326.717224 977.365784,328.753662 
	C961.913574,328.753662 947.129822,328.753662 931.937012,328.753662 
	C931.937012,253.582672 931.937012,178.398346 931.937012,103.106102 
	C946.998291,103.106102 961.932495,103.106102 977.441345,103.106102 
	C977.441345,135.937500 977.441345,168.496552 977.441345,201.055603 
	C977.838379,201.273956 978.235352,201.492310 978.632385,201.710663 
	C981.220215,199.141800 983.921387,196.676559 986.378418,193.988144 
	C1013.186523,164.655075 1039.931885,135.264496 1066.807007,105.993027 
	C1068.209595,104.465302 1070.616943,103.002670 1072.576172,102.976624 
	C1090.900513,102.733025 1109.229126,102.806831 1127.556519,102.808105 
	C1128.196533,102.808151 1128.836548,103.010063 1130.267334,103.251114 
	C1125.490356,108.370834 1121.112915,113.191620 1116.597656,117.879913 
	C1093.981201,141.363541 1071.388550,164.870789 1048.615723,188.202103 
	C1045.661499,191.228745 1046.938599,193.159821 1048.666870,195.800095 
	C1068.322266,225.826187 1087.916992,255.891968 1107.731567,286.245850 
z"/>
<path fill="#020202" opacity="1.000000" stroke="none" 
	d="
M1201.661621,330.379669 
	C1177.140015,324.138641 1160.878052,309.153809 1152.473389,285.938416 
	C1145.776978,267.441162 1144.872070,248.325699 1147.757568,228.881775 
	C1150.663452,209.300201 1158.159912,192.226746 1173.207520,178.921204 
	C1190.299316,163.808105 1210.533936,159.166275 1232.636719,161.770508 
	C1257.155273,164.659378 1276.311157,176.243668 1288.171509,198.371994 
	C1294.699707,210.552261 1297.510986,223.877625 1298.620972,237.580017 
	C1299.050415,242.881760 1299.364014,248.195129 1299.913452,253.484177 
	C1300.338623,257.575653 1298.860718,258.982513 1294.624023,258.962982 
	C1261.963989,258.812256 1229.302856,258.878693 1196.642090,258.877899 
	C1194.854614,258.877838 1193.067139,258.877930 1191.311890,258.877930 
	C1189.935303,287.199860 1213.280518,305.499847 1235.720581,298.258759 
	C1244.360352,295.470886 1249.513428,289.177063 1252.243774,280.931824 
	C1253.529297,277.049500 1255.474365,276.297882 1259.187134,276.870361 
	C1271.471191,278.764740 1283.797119,280.386963 1296.730347,282.201019 
	C1294.935181,290.290955 1291.129517,296.968292 1286.816650,303.332153 
	C1273.063965,323.624329 1253.042114,332.225891 1229.323120,332.785858 
	C1220.256592,332.999878 1211.145508,331.324158 1201.661621,330.379669 
M1252.413086,231.445587 
	C1254.587524,231.588455 1256.332397,231.481796 1256.148315,228.417969 
	C1255.448975,216.771149 1251.871582,206.556915 1241.723999,199.783051 
	C1230.915405,192.567932 1219.539185,192.365524 1208.286987,198.487473 
	C1195.638550,205.369095 1192.225708,217.322540 1191.341309,231.438171 
	C1211.643799,231.438171 1231.538696,231.438171 1252.413086,231.445587 
z"/>
<path fill="#020202" opacity="1.000000" stroke="none" 
	d="
M482.779175,311.215515 
	C467.863708,294.063690 462.193665,274.008606 461.648468,252.085373 
	C461.187134,233.533264 463.587738,215.616714 472.528290,198.999298 
	C486.433380,173.154663 514.212280,158.518555 543.541321,161.276855 
	C563.875061,163.189163 581.666321,170.106232 595.158081,186.059097 
	C605.944214,198.812820 610.773743,214.065369 613.039246,230.244019 
	C614.074829,237.639816 614.456238,245.131134 615.021606,252.587677 
	C615.474243,258.556793 615.111877,258.877014 609.262878,258.877136 
	C576.781006,258.877960 544.299072,258.877594 511.817200,258.877655 
	C510.026398,258.877655 508.235596,258.877686 506.473602,258.877686 
	C505.371643,284.578857 524.553772,303.191345 547.054260,299.305817 
	C556.805359,297.621948 562.932617,291.560974 566.892456,282.908966 
	C567.784302,280.960205 568.439941,278.903351 569.416199,276.339905 
	C583.525696,278.272430 597.596252,280.199615 612.294373,282.212738 
	C606.079773,300.448120 596.258789,314.929169 579.609680,323.924194 
	C562.870789,332.967804 544.892578,334.412323 526.323242,331.973328 
	C509.647736,329.783051 494.999847,323.488495 482.779175,311.215515 
M507.605865,222.326248 
	C507.262695,225.076675 506.919525,227.827103 506.521484,231.017242 
	C508.754517,231.179871 510.534271,231.419189 512.314392,231.422073 
	C529.281006,231.449585 546.247742,231.393433 563.214172,231.452087 
	C573.621399,231.488068 571.990356,232.016449 570.681213,222.506561 
	C568.389954,205.861542 555.585632,194.483795 539.703796,194.325409 
	C523.465576,194.163467 510.559448,205.144684 507.605865,222.326248 
z"/>
<path fill="#020202" opacity="1.000000" stroke="none" 
	d="
M1610.533936,186.508087 
	C1621.845459,173.907883 1636.021606,166.830887 1651.875244,163.356888 
	C1669.746338,159.440750 1687.638306,160.002930 1704.858521,166.829163 
	C1732.258667,177.690781 1749.204956,197.665955 1755.198608,226.543427 
	C1759.618896,247.839981 1758.119629,268.745911 1747.840820,288.213104 
	C1733.033569,316.256714 1709.317871,331.319214 1677.732300,332.804352 
	C1651.938232,334.017181 1628.695557,326.611359 1610.034302,307.996216 
	C1598.320435,296.311188 1592.538086,281.447723 1589.838989,265.418396 
	C1586.184448,243.713318 1588.086182,222.622879 1598.938965,203.054123 
	C1602.131836,197.296783 1606.484131,192.182495 1610.533936,186.508087 
M1647.728882,289.784515 
	C1666.345215,306.547577 1694.487793,301.893372 1705.646973,279.491119 
	C1715.598145,259.514252 1715.213501,238.484543 1707.352783,217.997589 
	C1701.517822,202.790085 1687.006958,193.690735 1671.837646,194.397873 
	C1655.157227,195.175415 1643.954956,204.152115 1637.674683,219.289810 
	C1632.586548,231.553375 1631.800903,244.429581 1633.327637,257.518280 
	C1634.728760,269.529938 1638.273682,280.583740 1647.728882,289.784515 
z"/>
<path fill="#020202" opacity="1.000000" stroke="none" 
	d="
M1493.317871,268.570862 
	C1473.851440,263.921753 1454.632080,259.851868 1436.898071,251.073059 
	C1408.388794,236.960236 1407.393311,199.623749 1424.950439,180.767441 
	C1435.555908,169.377045 1448.885620,164.448761 1463.778320,162.468613 
	C1482.645752,159.960007 1501.254639,160.535477 1519.479126,166.676163 
	C1535.642090,172.122192 1545.603516,183.698441 1551.826416,199.026688 
	C1552.696167,201.168701 1553.346680,203.403870 1554.010986,205.622147 
	C1554.187378,206.210907 1554.037598,206.897308 1554.037598,208.161591 
	C1544.523804,209.476135 1534.902710,210.226471 1525.567017,212.276215 
	C1517.914185,213.956451 1512.968506,213.911362 1509.802246,204.974243 
	C1507.242188,197.748474 1499.848145,194.439713 1492.303101,193.255127 
	C1481.657959,191.583801 1471.072144,191.801422 1460.913574,196.067322 
	C1456.330933,197.991638 1453.652710,201.358749 1453.789429,206.449692 
	C1453.925049,211.493851 1457.275391,214.552200 1461.546997,215.819733 
	C1475.222656,219.877655 1489.011719,223.562820 1502.801147,227.225021 
	C1516.313843,230.813721 1529.768066,234.530777 1541.771606,242.026169 
	C1552.809326,248.918625 1558.664185,258.943909 1560.058716,271.897614 
	C1563.463379,303.523407 1538.540039,323.887756 1517.039551,329.118530 
	C1493.654175,334.807861 1470.454346,334.898987 1447.730469,326.838959 
	C1427.477661,319.655457 1414.335815,305.122314 1407.898682,284.595978 
	C1407.713989,284.006714 1407.788940,283.335968 1407.705444,282.189972 
	C1417.689331,280.808685 1427.677856,280.132782 1437.303101,277.894897 
	C1446.778198,275.691956 1452.124268,277.514526 1455.565430,287.441467 
	C1458.168213,294.949432 1465.692139,298.425323 1473.535645,300.243530 
	C1485.432495,303.001343 1496.968994,302.341034 1508.151245,297.257568 
	C1512.500732,295.280273 1515.346558,291.993469 1516.550415,287.341003 
	C1518.143188,281.185699 1515.838013,275.703064 1509.940796,273.444885 
	C1504.696167,271.436584 1499.136353,270.251831 1493.317871,268.570862 
z"/>
<path fill="#010101" opacity="1.000000" stroke="none" 
	d="
M749.509277,204.643921 
	C738.531067,188.983307 713.747498,192.411774 701.952942,206.954178 
	C696.062378,214.217010 694.263489,222.890564 694.098877,231.695114 
	C693.532227,262.007629 693.381958,292.329712 693.343933,322.648468 
	C693.337891,327.479034 692.434875,329.389343 687.068176,329.146484 
	C676.424316,328.664978 665.735474,328.764435 655.081482,329.115845 
	C650.486206,329.267426 649.601807,327.667084 649.613159,323.423004 
	C649.750061,272.428528 649.735779,221.433533 649.634827,170.438904 
	C649.627075,166.520126 650.339111,164.818359 654.835388,164.956619 
	C666.298584,165.309067 677.779785,165.073959 689.846802,165.073959 
	C689.846802,172.243652 689.846802,179.124496 689.846802,187.649750 
	C692.457703,185.341644 694.045837,184.143799 695.391113,182.717026 
	C711.094421,166.062714 730.333923,158.868698 753.014648,161.789413 
	C764.897278,163.319595 775.889465,167.355347 784.736633,176.067413 
	C794.804749,185.981781 798.281433,198.704880 798.490479,211.961639 
	C799.097412,250.442978 798.857239,288.937714 798.936157,327.427216 
	C798.936829,327.733398 798.754639,328.039948 798.553467,328.676392 
	C784.587585,328.676392 770.522095,328.676392 756.102478,328.676392 
	C755.989624,327.619019 755.772095,326.527039 755.771301,325.434937 
	C755.753784,300.270844 755.934387,275.104950 755.681213,249.943436 
	C755.569214,238.811951 754.901184,227.658936 753.832886,216.578629 
	C753.449768,212.604889 751.148499,208.816101 749.509277,204.643921 
z"/>
<path fill="#030303" opacity="1.000000" stroke="none" 
	d="
M1378.302124,181.000504 
	C1378.302124,230.473343 1378.302124,279.446167 1378.302124,328.717407 
	C1363.724365,328.717407 1349.497070,328.717407 1334.866211,328.717407 
	C1334.866211,253.542084 1334.866211,178.503891 1334.866211,103.139023 
	C1349.229126,103.139023 1363.480835,103.139023 1378.302124,103.139023 
	C1378.302124,128.952225 1378.302124,154.726349 1378.302124,181.000504 
z"/>
<path fill="#FDFDFD" opacity="1.000000" stroke="none" 
	d="
M334.000000,289.994141 
	C321.175415,289.995361 308.850769,289.978455 296.526276,290.013062 
	C294.055420,290.020020 291.900024,290.152740 291.919281,286.557037 
	C292.015533,268.582001 291.963318,250.606155 291.963318,232.102203 
	C293.864197,231.863358 295.580750,231.453781 297.295227,231.462158 
	C314.942017,231.548355 332.599915,231.376709 350.229523,231.994858 
	C357.441925,232.247742 364.903137,233.338974 371.704010,235.655304 
	C383.872498,239.799774 390.066772,251.192993 388.839722,264.630096 
	C387.717285,276.922058 379.569672,286.375031 366.812836,288.123596 
	C356.156647,289.584259 345.279358,289.432098 334.000000,289.994141 
z"/>
<path fill="#FEFEFE" opacity="1.000000" stroke="none" 
	d="
M330.999878,192.399719 
	C317.876190,192.399734 305.252502,192.399734 292.297791,192.399734 
	C292.297791,175.385773 292.297791,158.996445 292.297791,142.309540 
	C293.515320,142.143860 294.624786,141.859329 295.733643,141.861877 
	C315.064514,141.906235 334.399841,141.748230 353.724854,142.120728 
	C375.481781,142.540146 387.512451,162.115417 376.873352,179.690323 
	C371.322876,188.859192 361.899200,191.356415 351.983307,192.020737 
	C345.177612,192.476669 338.329224,192.295883 330.999878,192.399719 
z"/>
<path fill="#FDFDFD" opacity="1.000000" stroke="none" 
	d="
M1251.923340,231.441879 
	C1231.538696,231.438171 1211.643799,231.438171 1191.341309,231.438171 
	C1192.225708,217.322540 1195.638550,205.369095 1208.286987,198.487473 
	C1219.539185,192.365524 1230.915405,192.567932 1241.723999,199.783051 
	C1251.871582,206.556915 1255.448975,216.771149 1256.148315,228.417969 
	C1256.332397,231.481796 1254.587524,231.588455 1251.923340,231.441879 
z"/>
<path fill="#FDFDFD" opacity="1.000000" stroke="none" 
	d="
M507.695007,221.905334 
	C510.559448,205.144684 523.465576,194.163467 539.703796,194.325409 
	C555.585632,194.483795 568.389954,205.861542 570.681213,222.506561 
	C571.990356,232.016449 573.621399,231.488068 563.214172,231.452087 
	C546.247742,231.393433 529.281006,231.449585 512.314392,231.422073 
	C510.534271,231.419189 508.754517,231.179871 506.521484,231.017242 
	C506.919525,227.827103 507.262695,225.076675 507.695007,221.905334 
z"/>
<path fill="#FEFEFE" opacity="1.000000" stroke="none" 
	d="
M1647.476318,289.533936 
	C1638.273682,280.583740 1634.728760,269.529938 1633.327637,257.518280 
	C1631.800903,244.429581 1632.586548,231.553375 1637.674683,219.289810 
	C1643.954956,204.152115 1655.157227,195.175415 1671.837646,194.397873 
	C1687.006958,193.690735 1701.517822,202.790085 1707.352783,217.997589 
	C1715.213501,238.484543 1715.598145,259.514252 1705.646973,279.491119 
	C1694.487793,301.893372 1666.345215,306.547577 1647.476318,289.533936 
z"/>
</svg>