<svg version="1.1" id="Layer_1" xmlns="http://www.w3.org/2000/svg" xmlns:xlink="http://www.w3.org/1999/xlink" x="0px" y="0px"
	 width="100%" viewBox="0 0 1988 1100" enable-background="new 0 0 1988 1100" xml:space="preserve">
<path fill="#FFFFFF" opacity="1.000000" stroke="none" 
	d="
M1461.000000,1101.000000 
	C974.000061,1101.000000 487.500183,1101.000000 1.000196,1101.000000 
	C1.000131,734.333496 1.000131,367.666962 1.000065,1.000343 
	C663.666382,1.000229 1326.332764,1.000229 1988.999268,1.000114 
	C1988.999512,367.666351 1988.999512,734.332703 1988.999756,1100.999512 
	C1813.166626,1101.000000 1637.333374,1101.000000 1461.000000,1101.000000 
M138.154617,133.499924 
	C138.154617,178.249527 138.154617,222.999130 138.154617,267.894653 
	C163.427475,267.894653 188.076157,268.174927 212.713470,267.767761 
	C223.804855,267.584442 235.114059,267.164124 245.906128,264.877289 
	C274.772827,258.760284 289.466858,220.056122 272.871216,195.655518 
	C267.013855,187.043472 258.559998,182.218597 248.659653,178.484879 
	C250.349655,177.369156 251.562927,176.544373 252.799133,175.755539 
	C275.965179,160.973450 277.803802,127.992073 256.695801,110.283104 
	C246.447647,101.685219 234.313919,99.501534 221.740234,99.307213 
	C195.252991,98.897881 168.756744,99.065971 142.264175,99.014458 
	C140.989365,99.011978 139.714233,99.176033 138.154617,99.281853 
	C138.154617,110.568939 138.154617,121.534424 138.154617,133.499924 
M649.915527,184.499969 
	C649.915527,212.250534 649.915527,240.001114 649.915527,267.666534 
	C661.589355,267.666534 672.655151,267.666534 684.183472,267.666534 
	C684.183472,255.371582 684.737000,243.377335 684.008606,231.461472 
	C683.424377,221.904221 685.200562,214.174179 692.955383,207.800980 
	C699.583984,202.353378 705.402710,195.920288 711.769714,189.738632 
	C712.551025,190.948151 713.397949,192.163803 714.148987,193.436050 
	C727.071838,215.327972 740.278564,237.061005 752.715271,259.225983 
	C756.412537,265.815308 760.193237,268.971558 768.036316,268.191071 
	C776.448486,267.354034 785.008484,268.002197 793.503967,268.002197 
	C796.072510,268.002197 798.640991,268.002197 801.889709,268.002197 
	C800.830933,266.057617 800.295044,264.888885 799.600037,263.824005 
	C779.064392,232.359161 758.562744,200.871811 737.888977,169.497864 
	C735.760681,166.267990 735.731262,164.414459 738.567078,161.547012 
	C751.671509,148.295807 764.507568,134.778946 777.419128,121.337372 
	C784.269226,114.206085 791.077087,107.034248 798.740234,99.004440 
	C784.270020,99.004440 771.021606,99.082588 757.775391,98.948128 
	C754.563110,98.915527 752.269165,99.715179 750.003723,102.223511 
	C732.838013,121.229149 715.500916,140.080093 698.202026,158.965332 
	C693.924438,163.635193 689.591125,168.254013 685.283447,172.896317 
	C684.869873,172.722717 684.456360,172.549118 684.042847,172.375534 
	C684.042847,148.026169 684.042847,123.676804 684.042847,99.300949 
	C672.280640,99.300949 661.218994,99.300949 649.915527,99.300949 
	C649.915527,127.567482 649.915527,155.533722 649.915527,184.499969 
M869.499451,270.961243 
	C895.306091,271.517120 916.579590,256.714081 922.159302,232.945114 
	C911.653381,231.525406 901.189148,230.111298 890.896240,228.720352 
	C884.554321,244.339218 874.601990,249.519119 861.112854,244.730423 
	C850.064148,240.808060 841.863892,226.706192 844.644592,215.189911 
	C871.228088,215.189911 897.945862,215.189911 925.072205,215.189911 
	C924.636230,208.832718 924.425476,203.026505 923.811157,197.263290 
	C920.808350,169.091965 906.375183,147.607346 876.239746,143.368546 
	C851.559631,139.897110 829.956604,149.076981 818.074341,171.722260 
	C810.147461,186.829514 808.953491,203.148438 811.062683,219.833633 
	C815.157654,252.228775 836.142578,270.897797 869.499451,270.961243 
M368.780945,270.227112 
	C390.494385,266.809723 404.138977,254.118347 411.479584,233.061188 
	C400.429871,231.557892 389.853790,230.119034 379.416351,228.699036 
	C374.354431,244.017914 364.608551,248.349945 352.004028,245.237473 
	C339.537384,242.159012 330.788940,228.614075 332.682861,215.626205 
	C334.419098,215.626205 336.222290,215.626175 338.025482,215.626236 
	C361.505951,215.627029 384.987488,215.511993 408.465942,215.730835 
	C412.917389,215.772324 413.995850,214.233978 413.477173,210.209747 
	C412.861725,205.434601 412.658630,200.607925 412.138977,195.818542 
	C409.250946,169.198883 394.787170,147.582657 364.908173,143.353546 
	C339.327148,139.732773 316.989471,150.082489 305.843262,173.434052 
	C297.708588,190.476303 297.195038,208.428131 300.838440,226.583435 
	C303.458069,239.637054 309.256073,251.103714 320.085388,259.392059 
	C334.319977,270.286682 350.702911,272.189423 368.780945,270.227112 
M1147.210938,175.745804 
	C1140.363525,189.665192 1138.931885,204.377960 1141.283447,219.486603 
	C1142.830322,229.424789 1146.040039,238.874573 1152.154907,247.052460 
	C1168.448242,268.842865 1202.887329,277.341858 1228.939331,266.158630 
	C1268.923096,248.994965 1275.238892,200.495712 1257.231201,171.514709 
	C1242.490845,147.792496 1218.841187,140.130386 1193.587769,143.364304 
	C1173.034424,145.996292 1157.166748,156.174423 1147.210938,175.745804 
M475.820404,156.405930 
	C474.309540,158.262741 472.798676,160.119568 471.287781,161.976395 
	C470.740601,161.653427 470.193420,161.330460 469.646240,161.007492 
	C469.646240,156.012161 469.646240,151.016830 469.646240,146.015289 
	C459.203674,146.015289 449.441620,146.015289 439.572754,146.015289 
	C439.572754,186.711151 439.572754,227.106750 439.572754,267.661621 
	C450.428925,267.661621 460.966339,267.661621 471.947968,267.661621 
	C471.947968,265.355499 471.944092,263.387390 471.948608,261.419281 
	C471.995117,241.099762 471.843048,220.776947 472.178711,200.462189 
	C472.335541,190.973633 472.967316,181.299545 480.893402,174.311386 
	C488.172577,167.893616 496.577118,165.526306 505.869019,168.905945 
	C514.376526,172.000305 517.029968,179.254715 517.573975,187.540543 
	C517.998779,194.011139 518.469360,200.492523 518.512207,206.971802 
	C518.636719,225.792572 518.556152,244.614685 518.556091,263.436279 
	C518.556091,264.879059 518.556152,266.321808 518.556152,267.621246 
	C529.678406,267.621246 540.240051,267.621246 550.633850,267.621246 
	C550.633850,238.434738 551.106445,209.622986 550.470459,180.835709 
	C550.034546,161.105011 541.007874,149.373672 524.073669,144.750275 
	C506.313873,139.901489 490.163727,143.221588 475.820404,156.405930 
M1014.675476,162.242722 
	C1004.743774,178.709366 1009.035522,203.090958 1030.934692,211.549652 
	C1036.192139,213.580338 1041.508423,215.530945 1046.928711,217.051682 
	C1057.797852,220.101227 1068.765747,222.796997 1079.675049,225.705887 
	C1083.634766,226.761719 1086.687988,228.835281 1086.978271,233.415527 
	C1087.298828,238.472122 1085.075195,242.039368 1080.543945,244.220596 
	C1072.571289,248.058502 1064.210083,248.511322 1055.695312,246.808868 
	C1047.210815,245.112457 1041.322266,240.365112 1038.626465,231.866745 
	C1038.246948,230.670517 1036.418823,228.964951 1035.441895,229.076584 
	C1025.409668,230.223160 1015.414673,231.696075 1005.166687,233.111481 
	C1008.758911,245.887863 1015.536133,255.620041 1026.517334,262.108765 
	C1041.865601,271.177917 1058.669800,272.073853 1075.830444,270.254211 
	C1088.914673,268.866791 1100.570801,264.456238 1109.884766,254.526764 
	C1123.505249,240.006195 1124.434204,210.633972 1101.161133,200.561966 
	C1093.137329,197.089508 1084.664917,194.583389 1076.270752,192.056030 
	C1066.418579,189.089554 1056.388672,186.715103 1046.518799,183.803040 
	C1042.895142,182.733932 1039.883057,180.528351 1039.932861,176.064041 
	C1039.984375,171.432098 1043.030151,168.901733 1046.926147,168.110550 
	C1052.582764,166.961868 1058.419067,166.110062 1064.171021,166.153732 
	C1073.380615,166.223648 1080.456421,170.212845 1083.981201,179.327026 
	C1084.394287,180.395294 1086.033325,181.855850 1086.922485,181.740082 
	C1096.249512,180.525864 1105.539429,179.027267 1115.304688,177.536346 
	C1111.173950,163.210587 1103.858276,152.341980 1089.927734,147.043762 
	C1076.825806,142.060684 1063.131470,142.017883 1049.505005,143.311966 
	C1035.666504,144.626205 1023.196106,149.234009 1014.675476,162.242722 
M983.666748,171.500183 
	C983.666748,147.409134 983.666748,123.318100 983.666748,99.296989 
	C972.346863,99.296989 961.752075,99.296989 951.136108,99.296989 
	C951.136108,155.636459 951.136108,211.677734 951.136108,267.698608 
	C962.115112,267.698608 972.694214,267.698608 983.666687,267.698608 
	C983.666687,235.760849 983.666687,204.130524 983.666748,171.500183 
z"/>
<path fill="#020202" opacity="1.000000" stroke="none" 
	d="
M138.154617,132.999908 
	C138.154617,121.534424 138.154617,110.568939 138.154617,99.281853 
	C139.714233,99.176033 140.989365,99.011978 142.264175,99.014458 
	C168.756744,99.065971 195.252991,98.897881 221.740234,99.307213 
	C234.313919,99.501534 246.447647,101.685219 256.695801,110.283104 
	C277.803802,127.992073 275.965179,160.973450 252.799133,175.755539 
	C251.562927,176.544373 250.349655,177.369156 248.659653,178.484879 
	C258.559998,182.218597 267.013855,187.043472 272.871216,195.655518 
	C289.466858,220.056122 274.772827,258.760284 245.906128,264.877289 
	C235.114059,267.164124 223.804855,267.584442 212.713470,267.767761 
	C188.076157,268.174927 163.427475,267.894653 138.154617,267.894653 
	C138.154617,222.999130 138.154617,178.249527 138.154617,132.999908 
M244.040588,212.592636 
	C241.123001,202.267929 235.197357,197.016617 223.465332,196.358917 
	C207.553955,195.466919 191.592133,195.488663 175.653976,195.045486 
	C173.109039,194.974731 172.082077,195.853821 172.099777,198.480789 
	C172.182709,210.788834 172.175323,223.097961 172.103622,235.406143 
	C172.089111,237.894180 172.829788,239.010376 175.519135,238.978485 
	C190.981964,238.795181 206.471161,239.247910 221.903290,238.496521 
	C238.376892,237.694397 246.067078,228.472702 244.040588,212.592636 
M174.835419,166.018585 
	C188.641281,165.953583 202.452576,166.098465 216.250916,165.742249 
	C224.110870,165.539307 231.631226,163.519913 235.879517,156.038010 
	C243.378403,142.831345 234.487793,128.937683 218.038925,128.413132 
	C204.079773,127.967957 190.099167,128.230408 176.130524,128.017914 
	C173.098038,127.971786 172.036606,128.922043 172.080872,131.996384 
	C172.226959,142.142227 172.078674,152.292252 172.214279,162.438385 
	C172.230118,163.622910 173.312134,164.793167 174.835419,166.018585 
z"/>
<path fill="#010101" opacity="1.000000" stroke="none" 
	d="
M649.915527,183.999969 
	C649.915527,155.533722 649.915527,127.567482 649.915527,99.300949 
	C661.218994,99.300949 672.280640,99.300949 684.042847,99.300949 
	C684.042847,123.676804 684.042847,148.026169 684.042847,172.375534 
	C684.456360,172.549118 684.869873,172.722717 685.283447,172.896317 
	C689.591125,168.254013 693.924438,163.635193 698.202026,158.965332 
	C715.500916,140.080093 732.838013,121.229149 750.003723,102.223511 
	C752.269165,99.715179 754.563110,98.915527 757.775391,98.948128 
	C771.021606,99.082588 784.270020,99.004440 798.740234,99.004440 
	C791.077087,107.034248 784.269226,114.206085 777.419128,121.337372 
	C764.507568,134.778946 751.671509,148.295807 738.567078,161.547012 
	C735.731262,164.414459 735.760681,166.267990 737.888977,169.497864 
	C758.562744,200.871811 779.064392,232.359161 799.600037,263.824005 
	C800.295044,264.888885 800.830933,266.057617 801.889709,268.002197 
	C798.640991,268.002197 796.072510,268.002197 793.503967,268.002197 
	C785.008484,268.002197 776.448486,267.354034 768.036316,268.191071 
	C760.193237,268.971558 756.412537,265.815308 752.715271,259.225983 
	C740.278564,237.061005 727.071838,215.327972 714.148987,193.436050 
	C713.397949,192.163803 712.551025,190.948151 711.769714,189.738632 
	C705.402710,195.920288 699.583984,202.353378 692.955383,207.800980 
	C685.200562,214.174179 683.424377,221.904221 684.008606,231.461472 
	C684.737000,243.377335 684.183472,255.371582 684.183472,267.666534 
	C672.655151,267.666534 661.589355,267.666534 649.915527,267.666534 
	C649.915527,240.001114 649.915527,212.250534 649.915527,183.999969 
z"/>
<path fill="#030303" opacity="1.000000" stroke="none" 
	d="
M869.010376,270.961182 
	C836.142578,270.897797 815.157654,252.228775 811.062683,219.833633 
	C808.953491,203.148438 810.147461,186.829514 818.074341,171.722260 
	C829.956604,149.076981 851.559631,139.897110 876.239746,143.368546 
	C906.375183,147.607346 920.808350,169.091965 923.811157,197.263290 
	C924.425476,203.026505 924.636230,208.832718 925.072205,215.189911 
	C897.945862,215.189911 871.228088,215.189911 844.644592,215.189911 
	C841.863892,226.706192 850.064148,240.808060 861.112854,244.730423 
	C874.601990,249.519119 884.554321,244.339218 890.896240,228.720352 
	C901.189148,230.111298 911.653381,231.525406 922.159302,232.945114 
	C916.579590,256.714081 895.306091,271.517120 869.010376,270.961182 
M855.024170,171.424911 
	C846.772217,176.995712 844.423279,185.268814 844.015259,194.768860 
	C860.309570,194.768860 876.207642,194.768860 892.102844,194.768860 
	C892.168762,172.813934 873.709167,160.946274 855.024170,171.424911 
z"/>
<path fill="#030303" opacity="1.000000" stroke="none" 
	d="
M368.340820,270.293213 
	C350.702911,272.189423 334.319977,270.286682 320.085388,259.392059 
	C309.256073,251.103714 303.458069,239.637054 300.838440,226.583435 
	C297.195038,208.428131 297.708588,190.476303 305.843262,173.434052 
	C316.989471,150.082489 339.327148,139.732773 364.908173,143.353546 
	C394.787170,147.582657 409.250946,169.198883 412.138977,195.818542 
	C412.658630,200.607925 412.861725,205.434601 413.477173,210.209747 
	C413.995850,214.233978 412.917389,215.772324 408.465942,215.730835 
	C384.987488,215.511993 361.505951,215.627029 338.025482,215.626236 
	C336.222290,215.626175 334.419098,215.626205 332.682861,215.626205 
	C330.788940,228.614075 339.537384,242.159012 352.004028,245.237473 
	C364.608551,248.349945 374.354431,244.017914 379.416351,228.699036 
	C389.853790,230.119034 400.429871,231.557892 411.479584,233.061188 
	C404.138977,254.118347 390.494385,266.809723 368.340820,270.293213 
M332.978485,190.826904 
	C332.865631,192.082611 332.752747,193.338333 332.622467,194.787933 
	C348.903778,194.787933 364.797943,194.787933 380.838837,194.787933 
	C380.725586,185.446625 378.227356,177.612640 370.671356,171.824768 
	C359.024200,162.903076 335.634552,166.983566 332.978485,190.826904 
z"/>
<path fill="#020202" opacity="1.000000" stroke="none" 
	d="
M1147.413574,175.430756 
	C1157.166748,156.174423 1173.034424,145.996292 1193.587769,143.364304 
	C1218.841187,140.130386 1242.490845,147.792496 1257.231201,171.514709 
	C1275.238892,200.495712 1268.923096,248.994965 1228.939331,266.158630 
	C1202.887329,277.341858 1168.448242,268.842865 1152.154907,247.052460 
	C1146.040039,238.874573 1142.830322,229.424789 1141.283447,219.486603 
	C1138.931885,204.377960 1140.363525,189.665192 1147.413574,175.430756 
M1184.078979,175.573410 
	C1183.303955,176.440399 1182.409058,177.227707 1181.771729,178.186249 
	C1170.953369,194.456451 1171.040649,211.815796 1178.036743,229.137207 
	C1182.322754,239.748703 1190.985962,245.847092 1202.936768,246.055756 
	C1215.107788,246.268250 1223.954590,240.341385 1228.645508,229.614700 
	C1235.412964,214.139740 1235.691895,198.027542 1228.009155,182.780853 
	C1219.402222,165.699951 1198.955933,162.407959 1184.078979,175.573410 
z"/>
<path fill="#030303" opacity="1.000000" stroke="none" 
	d="
M476.087738,156.157410 
	C490.163727,143.221588 506.313873,139.901489 524.073669,144.750275 
	C541.007874,149.373672 550.034546,161.105011 550.470459,180.835709 
	C551.106445,209.622986 550.633850,238.434738 550.633850,267.621246 
	C540.240051,267.621246 529.678406,267.621246 518.556152,267.621246 
	C518.556152,266.321808 518.556091,264.879059 518.556091,263.436279 
	C518.556152,244.614685 518.636719,225.792572 518.512207,206.971802 
	C518.469360,200.492523 517.998779,194.011139 517.573975,187.540543 
	C517.029968,179.254715 514.376526,172.000305 505.869019,168.905945 
	C496.577118,165.526306 488.172577,167.893616 480.893402,174.311386 
	C472.967316,181.299545 472.335541,190.973633 472.178711,200.462189 
	C471.843048,220.776947 471.995117,241.099762 471.948608,261.419281 
	C471.944092,263.387390 471.947968,265.355499 471.947968,267.661621 
	C460.966339,267.661621 450.428925,267.661621 439.572754,267.661621 
	C439.572754,227.106750 439.572754,186.711151 439.572754,146.015289 
	C449.441620,146.015289 459.203674,146.015289 469.646240,146.015289 
	C469.646240,151.016830 469.646240,156.012161 469.646240,161.007492 
	C470.193420,161.330460 470.740601,161.653427 471.287781,161.976395 
	C472.798676,160.119568 474.309540,158.262741 476.087738,156.157410 
z"/>
<path fill="#030303" opacity="1.000000" stroke="none" 
	d="
M1014.870300,161.934891 
	C1023.196106,149.234009 1035.666504,144.626205 1049.505005,143.311966 
	C1063.131470,142.017883 1076.825806,142.060684 1089.927734,147.043762 
	C1103.858276,152.341980 1111.173950,163.210587 1115.304688,177.536346 
	C1105.539429,179.027267 1096.249512,180.525864 1086.922485,181.740082 
	C1086.033325,181.855850 1084.394287,180.395294 1083.981201,179.327026 
	C1080.456421,170.212845 1073.380615,166.223648 1064.171021,166.153732 
	C1058.419067,166.110062 1052.582764,166.961868 1046.926147,168.110550 
	C1043.030151,168.901733 1039.984375,171.432098 1039.932861,176.064041 
	C1039.883057,180.528351 1042.895142,182.733932 1046.518799,183.803040 
	C1056.388672,186.715103 1066.418579,189.089554 1076.270752,192.056030 
	C1084.664917,194.583389 1093.137329,197.089508 1101.161133,200.561966 
	C1124.434204,210.633972 1123.505249,240.006195 1109.884766,254.526764 
	C1100.570801,264.456238 1088.914673,268.866791 1075.830444,270.254211 
	C1058.669800,272.073853 1041.865601,271.177917 1026.517334,262.108765 
	C1015.536133,255.620041 1008.758911,245.887863 1005.166687,233.111481 
	C1015.414673,231.696075 1025.409668,230.223160 1035.441895,229.076584 
	C1036.418823,228.964951 1038.246948,230.670517 1038.626465,231.866745 
	C1041.322266,240.365112 1047.210815,245.112457 1055.695312,246.808868 
	C1064.210083,248.511322 1072.571289,248.058502 1080.543945,244.220596 
	C1085.075195,242.039368 1087.298828,238.472122 1086.978271,233.415527 
	C1086.687988,228.835281 1083.634766,226.761719 1079.675049,225.705887 
	C1068.765747,222.796997 1057.797852,220.101227 1046.928711,217.051682 
	C1041.508423,215.530945 1036.192139,213.580338 1030.934692,211.549652 
	C1009.035522,203.090958 1004.743774,178.709366 1014.870300,161.934891 
z"/>
<path fill="#030303" opacity="1.000000" stroke="none" 
	d="
M983.666748,172.000183 
	C983.666687,204.130524 983.666687,235.760849 983.666687,267.698608 
	C972.694214,267.698608 962.115112,267.698608 951.136108,267.698608 
	C951.136108,211.677734 951.136108,155.636459 951.136108,99.296989 
	C961.752075,99.296989 972.346863,99.296989 983.666748,99.296989 
	C983.666748,123.318100 983.666748,147.409134 983.666748,172.000183 
z"/>
<path fill="#FCFCFC" opacity="1.000000" stroke="none" 
	d="
M244.110001,212.993805 
	C246.067078,228.472702 238.376892,237.694397 221.903290,238.496521 
	C206.471161,239.247910 190.981964,238.795181 175.519135,238.978485 
	C172.829788,239.010376 172.089111,237.894180 172.103622,235.406143 
	C172.175323,223.097961 172.182709,210.788834 172.099777,198.480789 
	C172.082077,195.853821 173.109039,194.974731 175.653976,195.045486 
	C191.592133,195.488663 207.553955,195.466919 223.465332,196.358917 
	C235.197357,197.016617 241.123001,202.267929 244.110001,212.993805 
z"/>
<path fill="#FCFCFC" opacity="1.000000" stroke="none" 
	d="
M174.367645,165.994324 
	C173.312134,164.793167 172.230118,163.622910 172.214279,162.438385 
	C172.078674,152.292252 172.226959,142.142227 172.080872,131.996384 
	C172.036606,128.922043 173.098038,127.971786 176.130524,128.017914 
	C190.099167,128.230408 204.079773,127.967957 218.038925,128.413132 
	C234.487793,128.937683 243.378403,142.831345 235.879517,156.038010 
	C231.631226,163.519913 224.110870,165.539307 216.250916,165.742249 
	C202.452576,166.098465 188.641281,165.953583 174.367645,165.994324 
z"/>
<path fill="#FCFCFC" opacity="1.000000" stroke="none" 
	d="
M855.335815,171.221344 
	C873.709167,160.946274 892.168762,172.813934 892.102844,194.768860 
	C876.207642,194.768860 860.309570,194.768860 844.015259,194.768860 
	C844.423279,185.268814 846.772217,176.995712 855.335815,171.221344 
z"/>
<path fill="#FCFCFC" opacity="1.000000" stroke="none" 
	d="
M333.019165,190.371994 
	C335.634552,166.983566 359.024200,162.903076 370.671356,171.824768 
	C378.227356,177.612640 380.725586,185.446625 380.838837,194.787933 
	C364.797943,194.787933 348.903778,194.787933 332.622467,194.787933 
	C332.752747,193.338333 332.865631,192.082611 333.019165,190.371994 
z"/>
<path fill="#FDFDFD" opacity="1.000000" stroke="none" 
	d="
M1184.331787,175.321106 
	C1198.955933,162.407959 1219.402222,165.699951 1228.009155,182.780853 
	C1235.691895,198.027542 1235.412964,214.139740 1228.645508,229.614700 
	C1223.954590,240.341385 1215.107788,246.268250 1202.936768,246.055756 
	C1190.985962,245.847092 1182.322754,239.748703 1178.036743,229.137207 
	C1171.040649,211.815796 1170.953369,194.456451 1181.771729,178.186249 
	C1182.409058,177.227707 1183.303955,176.440399 1184.331787,175.321106 
z"/>
</svg>